<?xml version="1.0" encoding="utf-8"?>
<svg xmlns="http://www.w3.org/2000/svg" xmlns:svg="http://www.w3.org/2000/svg" version="1.1" viewBox="0 0 1400 440">
	<title>The titlepage for the Standard Ebooks edition of The Shaving of Shagpat, by George Meredith</title>
	<g aria-label="THE SHAVING">
		<path d="m 345.06505,68.245613 h 18.33918 V 130 h 17.59065 V 68.245613 h 18.33918 V 52.807016 h -54.26901 z"/>
		<path d="m 428.2595,99.029239 h 24.88889 V 130 h 17.59064 V 52.807016 H 453.14839 V 83.590642 H 428.2595 V 52.807016 H 410.66885 V 130 h 17.59065 z"/>
		<path d="M 531.10453,52.807016 H 486.94079 V 130 h 44.16374 v -15.4386 h -26.5731 V 99.029239 h 25.45029 V 83.590642 H 504.53143 V 68.245613 h 26.5731 z"/>
		<path d="m 603.41886,51.403507 c -12.44444,0 -25.16959,9.169591 -25.16959,23.578948 0,8.046784 5.4269,15.251462 14.69006,19.836258 9.16959,4.584795 17.40351,7.111107 17.40351,12.725147 0,7.20468 -7.29825,7.57895 -11.1345,7.57895 -8.60819,0 -18.90059,-8.70176 -18.90059,-8.70176 l -8.79532,14.78363 c 0,0 10.94737,10.19883 29.00585,10.19883 15.06433,0 29.09941,-6.45614 29.09941,-24.88889 0,-10.105264 -9.45029,-17.40351 -18.05848,-21.052632 -8.79532,-3.742691 -16.09356,-6.83041 -16.09356,-11.134504 0,-4.210526 3.18128,-6.923976 9.16959,-6.923976 7.95321,0 15.62573,5.333333 15.62573,5.333333 l 7.11111,-14.035088 c 0,0 -9.91813,-7.298246 -23.95322,-7.298246 z"/>
		<path d="m 660.43056,99.029239 h 24.88889 V 130 h 17.59064 V 52.807016 H 685.31945 V 83.590642 H 660.43056 V 52.807016 H 642.83991 V 130 h 17.59065 z"/>
		<path d="m 758.31653,52.807016 h -16.2807 L 710.87794,130 h 18.90058 l 5.7076,-15.4386 h 29.38012 L 770.57384,130 h 18.90059 z m 0.56141,46.31579 h -17.40351 l 8.60819,-22.45614 h 0.18713 z"/>
		<path d="m 813.49342,130 h 13.84795 L 859.71564,52.807016 H 839.87938 L 820.41739,103.52047 800.95541,52.807016 h -19.83626 z"/>
		<path d="M 885.22591,52.807016 H 867.63526 V 130 h 17.59065 z"/>
		<path d="m 919.10017,82.093566 h 0.18714 L 949.97737,130 h 17.59064 V 52.807016 h -17.59064 v 47.906434 h -0.18714 L 919.10017,52.807016 H 901.50953 V 130 h 17.59064 z"/>
		<path d="m 1053.6133,86.771929 h -35.6491 v 13.567251 h 17.7778 c 0,9.45029 -8.3275,14.87719 -16.7486,14.87719 -10.8538,0 -19.64909,-10.66666 -19.64909,-23.766078 0,-13.380117 8.79529,-24.140352 19.64909,-24.140352 6.8304,0 12.7252,2.713451 17.2164,9.918129 l 11.5088,-12.631579 c -6.7369,-8.140351 -16.1872,-13.192983 -29.7544,-13.192983 -21.70761,0 -37.61405,17.871346 -37.61405,40.046785 0,22.081868 16.84211,39.953218 37.61405,39.953218 15.1579,0 31.4386,-8.32749 35.6491,-27.88304 z"/>
	</g>
	<g aria-label="OF SHAGPAT">
		<path d="m 367.42616,191.35672 c 0,22.54971 16.09357,40.04679 38.92398,40.04679 22.17544,0 38.83041,-17.49708 38.83041,-40.04679 0,-22.5497 -17.40351,-39.95321 -38.83041,-39.95321 -21.23977,0 -38.92398,17.40351 -38.92398,39.95321 z m 18.99416,0 c 0,-11.50877 6.36257,-23.01754 19.92982,-23.01754 13.66082,0 19.83626,11.50877 19.83626,23.01754 0,11.50878 -5.80117,23.01755 -19.83626,23.01755 -14.40936,0 -19.92982,-11.50877 -19.92982,-23.01755 z"/>
		<path d="M 502.57382,152.80702 H 457.94224 V 230 h 17.59065 v -30.97076 h 24.98246 v -15.4386 h -24.98246 v -15.34503 h 27.04093 z"/>
		<path d="m 573.14108,151.40351 c -12.44444,0 -25.16959,9.16959 -25.16959,23.57895 0,8.04678 5.4269,15.25146 14.69006,19.83625 9.16959,4.5848 17.40351,7.11111 17.40351,12.72515 0,7.20468 -7.29824,7.57895 -11.1345,7.57895 -8.60819,0 -18.90059,-8.70176 -18.90059,-8.70176 l -8.79532,14.78363 c 0,0 10.94737,10.19883 29.00585,10.19883 15.06433,0 29.09942,-6.45614 29.09942,-24.88889 0,-10.10526 -9.4503,-17.40351 -18.05848,-21.05263 -8.79533,-3.74269 -16.09357,-6.83041 -16.09357,-11.13451 0,-4.21052 3.18128,-6.92397 9.16959,-6.92397 7.95322,0 15.62573,5.33333 15.62573,5.33333 l 7.11111,-14.03509 c 0,0 -9.91813,-7.29824 -23.95322,-7.29824 z"/>
		<path d="m 630.15278,199.02924 h 24.88889 V 230 h 17.59064 v -77.19298 h -17.59064 v 30.78362 H 630.15278 V 152.80702 H 612.56213 V 230 h 17.59065 z"/>
		<path d="m 728.03875,152.80702 h -16.2807 L 680.60016,230 h 18.90058 l 5.7076,-15.4386 h 29.38012 L 740.29606,230 h 18.90059 z m 0.56141,46.31579 h -17.40351 l 8.60819,-22.45614 h 0.18713 z"/>
		<path d="m 836.91741,186.77193 h -35.64912 v 13.56725 h 17.77778 c 0,9.45029 -8.32749,14.87719 -16.74854,14.87719 -10.8538,0 -19.64913,-10.66666 -19.64913,-23.76608 0,-13.38012 8.79533,-24.14035 19.64913,-24.14035 6.83041,0 12.72514,2.71345 17.21637,9.91813 l 11.50877,-12.63158 c -6.73684,-8.14035 -16.18713,-13.19298 -29.75438,-13.19298 -21.7076,0 -37.61404,17.87134 -37.61404,40.04678 0,22.08187 16.84211,39.95322 37.61404,39.95322 15.15789,0 31.4386,-8.32749 35.64912,-27.88304 z"/>
		<path d="M 849.60162,152.80702 V 230 h 17.59065 v -28.63158 h 10.5731 c 15.06432,0 26.38596,-8.88889 26.38596,-24.79532 0,-16 -11.32164,-23.76608 -26.38596,-23.76608 z m 17.59065,34.52631 V 166.8421 h 4.95906 c 6.92398,0 13.47369,2.33919 13.47369,10.2924 0,7.85965 -6.54971,10.19883 -13.47369,10.19883 z"/>
		<path d="m 950.09283,152.80702 h -16.2807 L 902.65423,230 h 18.90059 l 5.7076,-15.4386 h 29.38012 L 962.35014,230 h 18.90059 z m 0.56141,46.31579 h -17.40351 l 8.60818,-22.45614 h 0.18714 z"/>
		<path d="m 979.7361,168.24561 h 18.33918 V 230 h 17.59062 v -61.75439 h 18.3392 v -15.43859 h -54.269 z"/>
	</g>
	<g aria-label="GEORGE MEREDITH">
		<path d="m 375.54989,357.57895 h -26.73684 v 10.17544 h 13.33333 c 0,7.08772 -6.24561,11.15789 -12.5614,11.15789 -8.14035,0 -14.73684,-8 -14.73684,-17.82456 0,-10.03509 6.59649,-18.10526 14.73684,-18.10526 5.12281,0 9.54386,2.03508 12.91228,7.43859 l 8.63158,-9.47368 c -5.05263,-6.10526 -12.14035,-9.89474 -22.31579,-9.89474 -16.2807,0 -28.21052,13.40351 -28.21052,30.03509 0,16.5614 12.63157,29.96491 28.21052,29.96491 11.36842,0 23.57895,-6.24561 26.73684,-20.91228 z"/>
		<path d="M 419.43586,332.10526 H 386.31305 V 390 h 33.12281 v -11.57895 h -19.92983 v -11.64912 h 19.08772 v -11.57895 h -19.08772 v -11.50877 h 19.92983 z"/>
		<path d="m 429.4238,361.01754 c 0,16.91228 12.07017,30.03509 29.19298,30.03509 16.63158,0 29.12281,-13.12281 29.12281,-30.03509 0,-16.91228 -13.05263,-29.96491 -29.12281,-29.96491 -15.92982,0 -29.19298,13.05263 -29.19298,29.96491 z m 14.24561,0 c 0,-8.63157 4.77193,-17.26315 14.94737,-17.26315 10.24562,0 14.87719,8.63158 14.87719,17.26315 0,8.63158 -4.35087,17.26316 -14.87719,17.26316 -10.80702,0 -14.94737,-8.63158 -14.94737,-17.26316 z"/>
		<path d="M 498.56086,332.10526 V 390 h 13.19299 V 367.12281 L 529.43806,390 h 16.77193 l -19.92983,-23.92982 c 7.08772,-2.24562 11.85965,-8.07018 11.85965,-16.77193 0,-11.36842 -8.14035,-17.19299 -18.87719,-17.19299 z m 13.19299,25.68421 v -15.15789 h 1.54386 c 4.98245,0 10.94736,0.35088 10.94736,7.57895 0,7.22807 -5.96491,7.57894 -10.94736,7.57894 z"/>
		<path d="m 606.21327,357.57895 h -26.73684 v 10.17544 h 13.33333 c 0,7.08772 -6.24561,11.15789 -12.5614,11.15789 -8.14035,0 -14.73685,-8 -14.73685,-17.82456 0,-10.03509 6.5965,-18.10526 14.73685,-18.10526 5.1228,0 9.54386,2.03508 12.91228,7.43859 l 8.63158,-9.47368 c -5.05264,-6.10526 -12.14035,-9.89474 -22.31579,-9.89474 -16.2807,0 -28.21053,13.40351 -28.21053,30.03509 0,16.5614 12.63158,29.96491 28.21053,29.96491 11.36842,0 23.57894,-6.24561 26.73684,-20.91228 z"/>
		<path d="M 650.09923,332.10526 H 616.97642 V 390 h 33.12281 V 378.42105 H 630.1694 v -11.64912 h 19.08772 V 355.19298 H 630.1694 v -11.50877 h 19.92983 z"/>
		<path d="m 734.73191,390 h 13.19299 l -5.19299,-57.89474 h -14.03508 l -12.84211,33.40351 -12.8421,-33.40351 H 688.97753 L 683.78455,390 h 13.19298 l 2.73684,-34.31579 h 0.35088 l 11.85965,33.96491 h 7.85965 l 11.85964,-33.96491 h 0.35088 z"/>
		<path d="M 791.33278,332.10526 H 758.20997 V 390 h 33.12281 v -11.57895 h -19.92983 v -11.64912 h 19.08772 v -11.57895 h -19.08772 v -11.50877 h 19.92983 z"/>
		<path d="M 803.91722,332.10526 V 390 H 817.1102 V 367.12281 L 834.79441,390 h 16.77193 l -19.92982,-23.92982 c 7.08771,-2.24562 11.85964,-8.07018 11.85964,-16.77193 0,-11.36842 -8.14035,-17.19299 -18.87719,-17.19299 z m 13.19298,25.68421 v -15.15789 h 1.54386 c 4.98246,0 10.94737,0.35088 10.94737,7.57895 0,7.22807 -5.96491,7.57894 -10.94737,7.57894 z"/>
		<path d="M 892.34154,332.10526 H 859.21873 V 390 h 33.12281 v -11.57895 h -19.92983 v -11.64912 h 19.08772 v -11.57895 h -19.08772 v -11.50877 h 19.92983 z"/>
		<path d="M 904.92601,332.10526 V 390 h 16.77193 c 15.92982,0 29.19298,-12.07018 29.19298,-28.98246 0,-16.8421 -13.33334,-28.91228 -29.19298,-28.91228 z m 13.19298,46.10527 v -34.31579 h 2.03509 c 9.82456,0 16.49122,7.50877 16.49122,17.19298 -0.0702,9.68421 -6.73684,17.12281 -16.49122,17.12281 z"/>
		<path d="M 974.92819,332.10526 H 961.73521 V 390 h 13.19298 z"/>
		<path d="M 981.31521,343.68421 H 995.0696 V 390 h 13.193 v -46.31579 h 13.7544 v -11.57895 h -40.70179 z"/>
		<path d="m 1044.9611,366.77193 h 18.6667 V 390 h 13.1929 v -57.89474 h -13.1929 v 23.08772 h -18.6667 v -23.08772 h -13.193 V 390 h 13.193 z"/>
	</g>
</svg>
